<svg xmlns="http://www.w3.org/2000/svg" xmlns:xlink="http://www.w3.org/1999/xlink" width="500" zoomAndPan="magnify" viewBox="0 0 375 374.999991" height="500" preserveAspectRatio="xMidYMid meet" version="1.0"><defs><g/><clipPath id="7c9837368f"><path d="M 132 167 L 138 167 L 138 219.132812 L 132 219.132812 Z M 132 167 " clip-rule="nonzero"/></clipPath><clipPath id="edab802485"><path d="M 104.636719 156.132812 L 165.386719 156.132812 L 165.386719 189 L 104.636719 189 Z M 104.636719 156.132812 " clip-rule="nonzero"/></clipPath></defs><path fill="#393536" d="M 151.785156 180.453125 L 147.109375 176.832031 L 147.109375 204.433594 L 151.785156 201.402344 L 151.785156 180.453125 " fill-opacity="1" fill-rule="nonzero"/><path fill="#393536" d="M 144.59375 174.886719 L 139.914062 171.265625 L 139.914062 212.398438 L 144.59375 209.371094 L 144.59375 174.886719 " fill-opacity="1" fill-rule="nonzero"/><path fill="#393536" d="M 130.207031 171.265625 L 125.53125 174.886719 L 125.53125 209.371094 L 130.207031 212.398438 L 130.207031 171.265625 " fill-opacity="1" fill-rule="nonzero"/><path fill="#393536" d="M 123.015625 204.433594 L 123.015625 176.832031 L 118.335938 180.453125 L 118.335938 201.402344 L 123.015625 204.433594 " fill-opacity="1" fill-rule="nonzero"/><g clip-path="url(#7c9837368f)"><path fill="#393536" d="M 137.402344 216.101562 L 137.402344 169.316406 L 135.0625 167.507812 L 132.722656 169.316406 L 132.722656 216.101562 L 135.0625 219.132812 L 137.402344 216.101562 " fill-opacity="1" fill-rule="nonzero"/></g><g clip-path="url(#edab802485)"><path fill="#198b65" d="M 135.0625 165.378906 L 165.386719 188.851562 L 135.0625 155.863281 L 104.738281 188.851562 L 135.0625 165.378906 " fill-opacity="1" fill-rule="nonzero"/></g><g fill="#198b65" fill-opacity="1"><g transform="translate(172.102924, 198.60866)"><g><path d="M 2.65625 0 L 2.65625 -26.21875 L 9.0625 -26.21875 L 9.0625 0 Z M 2.65625 0 "/></g></g></g><g fill="#198b65" fill-opacity="1"><g transform="translate(186.894294, 198.60866)"><g><path d="M 24.1875 0 L 17.265625 0 L 12.515625 -9.40625 L 8.984375 -9.40625 L 8.984375 0 L 2.65625 0 L 2.65625 -26.21875 L 13.453125 -26.21875 C 16.765625 -26.21875 19.21875 -25.484375 20.8125 -24.015625 C 22.414062 -22.554688 23.21875 -20.457031 23.21875 -17.71875 C 23.21875 -14 21.695312 -11.523438 18.65625 -10.296875 Z M 8.984375 -21.015625 L 8.984375 -14.453125 L 13.1875 -14.453125 C 15.65625 -14.453125 16.890625 -15.539062 16.890625 -17.71875 C 16.890625 -19.914062 15.65625 -21.015625 13.1875 -21.015625 Z M 8.984375 -21.015625 "/></g></g></g><g fill="#198b65" fill-opacity="1"><g transform="translate(215.016016, 198.60866)"><g><path d="M 2.65625 0 L 2.65625 -26.21875 L 20.71875 -26.21875 L 21.015625 -20.9375 L 9.03125 -20.9375 L 9.03125 -15.875 L 19.546875 -15.875 L 19.546875 -10.5625 L 9.03125 -10.5625 L 9.03125 -5.28125 L 21.453125 -5.28125 L 20.59375 0 Z M 2.65625 0 "/></g></g></g><g fill="#198b65" fill-opacity="1"><g transform="translate(240.891049, 198.60866)"><g><path d="M 11.234375 0.59375 C 9.359375 0.59375 7.609375 0.441406 5.984375 0.140625 C 4.367188 -0.148438 3.148438 -0.445312 2.328125 -0.75 L 1.453125 -6.4375 C 2.128906 -6.21875 2.976562 -5.972656 4 -5.703125 C 5.03125 -5.441406 6.132812 -5.222656 7.3125 -5.046875 C 8.5 -4.878906 9.671875 -4.796875 10.828125 -4.796875 C 12.421875 -4.796875 13.535156 -5.035156 14.171875 -5.515625 C 14.804688 -6.003906 15.125 -6.660156 15.125 -7.484375 C 15.125 -8.210938 14.878906 -8.773438 14.390625 -9.171875 C 13.910156 -9.578125 13.082031 -9.914062 11.90625 -10.1875 L 7.671875 -11.234375 C 5.597656 -11.734375 4.035156 -12.582031 2.984375 -13.78125 C 1.941406 -14.976562 1.421875 -16.675781 1.421875 -18.875 C 1.421875 -21.300781 2.222656 -23.226562 3.828125 -24.65625 C 5.441406 -26.09375 7.972656 -26.8125 11.421875 -26.8125 C 13.296875 -26.8125 15 -26.675781 16.53125 -26.40625 C 18.070312 -26.132812 19.191406 -25.859375 19.890625 -25.578125 L 20.1875 -20.03125 C 19.613281 -20.238281 18.882812 -20.453125 18 -20.671875 C 17.113281 -20.898438 16.144531 -21.085938 15.09375 -21.234375 C 14.039062 -21.378906 12.992188 -21.453125 11.953125 -21.453125 C 10.421875 -21.453125 9.363281 -21.226562 8.78125 -20.78125 C 8.195312 -20.332031 7.90625 -19.75 7.90625 -19.03125 C 7.90625 -18.28125 8.144531 -17.695312 8.625 -17.28125 C 9.113281 -16.875 9.957031 -16.519531 11.15625 -16.21875 L 15.25 -15.25 C 17.320312 -14.75 18.90625 -13.921875 20 -12.765625 C 21.09375 -11.617188 21.640625 -9.898438 21.640625 -7.609375 C 21.640625 -5.078125 20.8125 -3.078125 19.15625 -1.609375 C 17.5 -0.140625 14.859375 0.59375 11.234375 0.59375 Z M 11.234375 0.59375 "/></g></g></g></svg>